/* XPM */
static char * scicoin16_xpm[] = {
"16 16 2 1",
" 	g None",
".	g #000000",
"      ...       ",
"      ....      ",
"     ..  ..     ",
"     .   ..     ",
"    .           ",
"   .    .  .    ",
"   ..   .  ..   ",
"  ..   .    .   ",
"  .         ..  ",
"  .         ..  ",
"  ...........   ",
"         .      ",
"                ",
"  ..    . .  .  ",
"  .. .. . . ..  ",
"      .         "};
