/* XPM */
static char * scicoin32_xpm[] = {
"32 32 2 1",
" 	g None",
".	g #000000",
"             .....              ",
"            .......             ",
"            ........            ",
"           ...   ...            ",
"          ...     ...           ",
"          ...      ...          ",
"         ...       ....         ",
"         ...       ...          ",
"        ...        ..           ",
"         .            .         ",
"              ....    ..        ",
"     ....     ....    ...       ",
"      ....      ..    ...       ",
"     .....     ..      ...      ",
"     ...       ..       ...     ",
"    ...       ..        ...     ",
"    ..        .          ...    ",
"   ...                   ...    ",
"   ...                   ...    ",
"    ...           .     ....    ",
"    ...........  ..........     ",
"     ........... .........      ",
"                 ...            ",
"                  .             ",
"                                ",
"    ...         ..              ",
"    ...   .  .  ... . .  ...    ",
"    ...   .  .. ..  ... .. ..   ",
"   .....  .  .  ..  ..  .....   ",
"   .....  .  .  ..  ..  ..      ",
"   .   .  ....  ... .    ....   ",
"                                "};
